<?xml version="1.0" encoding="iso-8859-1"?>
<!-- Generator: Adobe Illustrator 13.0.0, SVG Export Plug-In . SVG Version: 6.00 Build 14948)  -->
<!DOCTYPE svg PUBLIC "-//W3C//DTD SVG 1.1//EN" "http://www.w3.org/Graphics/SVG/1.1/DTD/svg11.dtd">
<svg version="1.1" id="Layer_1" xmlns="http://www.w3.org/2000/svg" xmlns:xlink="http://www.w3.org/1999/xlink" x="0px" y="0px"
	 width="400px" height="240px" viewBox="0 0 400 240" style="enable-background:new 0 0 400 240;" xml:space="preserve">
<rect x="5.225" y="4.962" style="fill:#F9F8F2;stroke:#663300;stroke-width:4;" width="389.23" height="232.923"/>
<path style="fill:#F2D249;stroke:#0099CC;" d="M69.093,50.533c0,0.643-0.641,1.169-1.425,1.169H12.153
	c-0.784,0-1.425-0.526-1.425-1.169V12.237c0-0.643,0.641-1.169,1.425-1.169h55.515c0.784,0,1.425,0.526,1.425,1.169V50.533z"/>
<path style="fill:#F9E8A2;stroke:#0099CC;" d="M133.215,50.533c0,0.643-0.641,1.169-1.425,1.169H76.274
	c-0.783,0-1.425-0.526-1.425-1.169V12.237c0-0.643,0.642-1.169,1.425-1.169h55.516c0.784,0,1.425,0.526,1.425,1.169V50.533z"/>
<path style="fill:#F9E8A2;stroke:#0099CC;" d="M197.336,50.533c0,0.643-0.641,1.169-1.425,1.169h-55.515
	c-0.784,0-1.425-0.526-1.425-1.169V12.237c0-0.643,0.641-1.169,1.425-1.169h55.515c0.784,0,1.425,0.526,1.425,1.169V50.533z"/>
<path style="fill:#F9E8A2;stroke:#0099CC;" d="M261.458,50.533c0,0.643-0.641,1.169-1.425,1.169h-55.516
	c-0.783,0-1.425-0.526-1.425-1.169V12.237c0-0.643,0.642-1.169,1.425-1.169h55.516c0.784,0,1.425,0.526,1.425,1.169V50.533z"/>
<path style="fill:#F9E8A2;stroke:#0099CC;" d="M325.58,50.533c0,0.643-0.642,1.169-1.425,1.169H268.64
	c-0.783,0-1.425-0.526-1.425-1.169V12.237c0-0.643,0.642-1.169,1.425-1.169h55.516c0.783,0,1.425,0.526,1.425,1.169V50.533z"/>
<path style="fill:#F9E8A2;stroke:#0099CC;" d="M389.701,50.533c0,0.643-0.641,1.169-1.425,1.169h-55.515
	c-0.784,0-1.426-0.526-1.426-1.169V12.237c0-0.643,0.642-1.169,1.426-1.169h55.515c0.784,0,1.425,0.526,1.425,1.169V50.533z"/>
<path style="fill:#F4E992;stroke:#0099CC;" d="M69.093,95.473c0,0.643-0.641,1.169-1.425,1.169H12.153
	c-0.784,0-1.425-0.526-1.425-1.169V57.177c0-0.643,0.641-1.169,1.425-1.169h55.515c0.784,0,1.425,0.526,1.425,1.169V95.473z"/>
<path style="fill:#FFFFCC;stroke:#0099CC;" d="M133.215,95.473c0,0.643-0.641,1.169-1.425,1.169H76.274
	c-0.783,0-1.425-0.526-1.425-1.169V57.177c0-0.643,0.642-1.169,1.425-1.169h55.516c0.784,0,1.425,0.526,1.425,1.169V95.473z"/>
<path style="fill:#FFFFCC;stroke:#0099CC;" d="M197.336,95.473c0,0.643-0.641,1.169-1.425,1.169h-55.515
	c-0.784,0-1.425-0.526-1.425-1.169V57.177c0-0.643,0.641-1.169,1.425-1.169h55.515c0.784,0,1.425,0.526,1.425,1.169V95.473z"/>
<path style="fill:#FFFFCC;stroke:#0099CC;" d="M261.458,95.473c0,0.643-0.641,1.169-1.425,1.169h-55.516
	c-0.783,0-1.425-0.526-1.425-1.169V57.177c0-0.643,0.642-1.169,1.425-1.169h55.516c0.784,0,1.425,0.526,1.425,1.169V95.473z"/>
<path style="fill:#FFFFCC;stroke:#0099CC;" d="M325.58,95.473c0,0.643-0.642,1.169-1.425,1.169H268.64
	c-0.783,0-1.425-0.526-1.425-1.169V57.177c0-0.643,0.642-1.169,1.425-1.169h55.516c0.783,0,1.425,0.526,1.425,1.169V95.473z"/>
<path style="fill:#FFFFCC;stroke:#0099CC;" d="M389.701,95.473c0,0.643-0.641,1.169-1.425,1.169h-55.515
	c-0.784,0-1.426-0.526-1.426-1.169V57.177c0-0.643,0.642-1.169,1.426-1.169h55.515c0.784,0,1.425,0.526,1.425,1.169V95.473z"/>
<path style="fill:#F2D249;stroke:#0099CC;" d="M69.093,140.412c0,0.645-0.641,1.17-1.425,1.17H12.153
	c-0.784,0-1.425-0.525-1.425-1.17v-38.294c0-0.644,0.641-1.17,1.425-1.17h55.515c0.784,0,1.425,0.526,1.425,1.17V140.412z"/>
<path style="fill:#F9E8A2;stroke:#0099CC;" d="M133.215,140.412c0,0.645-0.641,1.17-1.425,1.17H76.274
	c-0.783,0-1.425-0.525-1.425-1.17v-38.294c0-0.644,0.642-1.17,1.425-1.17h55.516c0.784,0,1.425,0.526,1.425,1.17V140.412z"/>
<path style="fill:#F9E8A2;stroke:#0099CC;" d="M197.336,140.412c0,0.645-0.641,1.17-1.425,1.17h-55.515
	c-0.784,0-1.425-0.525-1.425-1.17v-38.294c0-0.644,0.641-1.17,1.425-1.17h55.515c0.784,0,1.425,0.526,1.425,1.17V140.412z"/>
<path style="fill:#F9E8A2;stroke:#0099CC;" d="M261.458,140.412c0,0.645-0.641,1.17-1.425,1.17h-55.516
	c-0.783,0-1.425-0.525-1.425-1.17v-38.294c0-0.644,0.642-1.17,1.425-1.17h55.516c0.784,0,1.425,0.526,1.425,1.17V140.412z"/>
<path style="fill:#F9E8A2;stroke:#0099CC;" d="M325.58,140.412c0,0.645-0.642,1.17-1.425,1.17H268.64
	c-0.783,0-1.425-0.525-1.425-1.17v-38.294c0-0.644,0.642-1.17,1.425-1.17h55.516c0.783,0,1.425,0.526,1.425,1.17V140.412z"/>
<path style="fill:#F9E8A2;stroke:#0099CC;" d="M389.701,140.412c0,0.645-0.641,1.17-1.425,1.17h-55.515
	c-0.784,0-1.426-0.525-1.426-1.17v-38.294c0-0.644,0.642-1.17,1.426-1.17h55.515c0.784,0,1.425,0.526,1.425,1.17V140.412z"/>
<path style="fill:#F4E992;stroke:#0099CC;" d="M69.093,185.354c0,0.644-0.641,1.169-1.425,1.169H12.153
	c-0.784,0-1.425-0.525-1.425-1.169v-38.296c0-0.644,0.641-1.169,1.425-1.169h55.515c0.784,0,1.425,0.525,1.425,1.169V185.354z"/>
<path style="fill:#FFFFCC;stroke:#0099CC;" d="M133.215,185.354c0,0.644-0.641,1.169-1.425,1.169H76.274
	c-0.783,0-1.425-0.525-1.425-1.169v-38.296c0-0.644,0.642-1.169,1.425-1.169h55.516c0.784,0,1.425,0.525,1.425,1.169V185.354z"/>
<path style="fill:#FFFFCC;stroke:#0099CC;" d="M197.336,185.354c0,0.644-0.641,1.169-1.425,1.169h-55.515
	c-0.784,0-1.425-0.525-1.425-1.169v-38.296c0-0.644,0.641-1.169,1.425-1.169h55.515c0.784,0,1.425,0.525,1.425,1.169V185.354z"/>
<path style="fill:#FFFFCC;stroke:#0099CC;" d="M261.458,185.354c0,0.644-0.641,1.169-1.425,1.169h-55.516
	c-0.783,0-1.425-0.525-1.425-1.169v-38.296c0-0.644,0.642-1.169,1.425-1.169h55.516c0.784,0,1.425,0.525,1.425,1.169V185.354z"/>
<path style="fill:#FFFFCC;stroke:#0099CC;" d="M325.58,185.354c0,0.644-0.642,1.169-1.425,1.169H268.64
	c-0.783,0-1.425-0.525-1.425-1.169v-38.296c0-0.644,0.642-1.169,1.425-1.169h55.516c0.783,0,1.425,0.525,1.425,1.169V185.354z"/>
<path style="fill:#FFFFCC;stroke:#0099CC;" d="M389.701,185.354c0,0.644-0.641,1.169-1.425,1.169h-55.515
	c-0.784,0-1.426-0.525-1.426-1.169v-38.296c0-0.644,0.642-1.169,1.426-1.169h55.515c0.784,0,1.425,0.525,1.425,1.169V185.354z"/>
<path style="fill:#F2D249;stroke:#0099CC;" d="M69.093,230.293c0,0.643-0.641,1.17-1.425,1.17H12.153
	c-0.784,0-1.425-0.527-1.425-1.17v-38.296c0-0.642,0.641-1.169,1.425-1.169h55.515c0.784,0,1.425,0.527,1.425,1.169V230.293z"/>
<path style="fill:#F9E8A2;stroke:#0099CC;" d="M133.215,230.293c0,0.643-0.641,1.17-1.425,1.17H76.274
	c-0.783,0-1.425-0.527-1.425-1.17v-38.296c0-0.642,0.642-1.169,1.425-1.169h55.516c0.784,0,1.425,0.527,1.425,1.169V230.293z"/>
<path style="fill:#F9E8A2;stroke:#0099CC;" d="M197.336,230.293c0,0.643-0.641,1.17-1.425,1.17h-55.515
	c-0.784,0-1.425-0.527-1.425-1.17v-38.296c0-0.642,0.641-1.169,1.425-1.169h55.515c0.784,0,1.425,0.527,1.425,1.169V230.293z"/>
<path style="fill:#F9E8A2;stroke:#0099CC;" d="M261.458,230.293c0,0.643-0.641,1.17-1.425,1.17h-55.516
	c-0.783,0-1.425-0.527-1.425-1.17v-38.296c0-0.642,0.642-1.169,1.425-1.169h55.516c0.784,0,1.425,0.527,1.425,1.169V230.293z"/>
<path style="fill:#F9E8A2;stroke:#0099CC;" d="M325.58,230.293c0,0.643-0.642,1.17-1.425,1.17H268.64
	c-0.783,0-1.425-0.527-1.425-1.17v-38.296c0-0.642,0.642-1.169,1.425-1.169h55.516c0.783,0,1.425,0.527,1.425,1.169V230.293z"/>
<path style="fill:#F9E8A2;stroke:#0099CC;" d="M389.701,230.293c0,0.643-0.641,1.17-1.425,1.17h-55.515
	c-0.784,0-1.426-0.527-1.426-1.17v-38.296c0-0.642,0.642-1.169,1.426-1.169h55.515c0.784,0,1.425,0.527,1.425,1.169V230.293z"/>
<g>
	<path style="fill:#CC6633;stroke:#472608;" d="M102.058,40.645c0.331,1.27,0.965,2.249,1.901,2.938
		c0.936,0.689,2.301,1.033,4.094,1.033c2.067,0,3.641-0.508,4.723-1.524s1.623-2.296,1.623-3.838c0-1.515-0.507-2.794-1.521-3.838
		c-1.014-1.043-2.594-1.565-4.738-1.565c-1.014,0-1.891,0.089-2.632,0.266c-1.307,0.328-2.291,0.935-2.954,1.822l-7.489-0.246
		l2.982-16.395h23.388v4.953h-17.359l-1.521,6.488c1.288-0.586,2.293-0.975,3.016-1.167c1.21-0.314,2.684-0.471,4.42-0.471
		c3.513,0,6.577,0.826,9.192,2.477s3.923,4.052,3.923,7.205c0,2.743-1.26,5.192-3.778,7.348c-2.519,2.156-6.287,3.234-11.304,3.234
		c-4.042,0-7.361-0.758-9.958-2.272s-4.042-3.663-4.334-6.447H102.058z"/>
	<path style="fill:#CC6633;stroke:#472608;" d="M126.917,34.136h16.358v5.526h-16.358V34.136z"/>
	<path style="fill:#CC6633;stroke:#472608;" d="M155.441,40.645c0.331,1.27,0.965,2.249,1.901,2.938s2.301,1.033,4.094,1.033
		c2.067,0,3.642-0.508,4.724-1.524c1.082-1.017,1.623-2.296,1.623-3.838c0-1.515-0.507-2.794-1.521-3.838
		c-1.015-1.043-2.594-1.565-4.738-1.565c-1.014,0-1.892,0.089-2.632,0.266c-1.307,0.328-2.292,0.935-2.954,1.822l-7.49-0.246
		l2.983-16.395h23.387v4.953h-17.359l-1.521,6.488c1.288-0.586,2.293-0.975,3.015-1.167c1.21-0.314,2.684-0.471,4.42-0.471
		c3.513,0,6.577,0.826,9.192,2.477c2.616,1.651,3.923,4.052,3.923,7.205c0,2.743-1.259,5.192-3.778,7.348
		c-2.519,2.156-6.287,3.234-11.305,3.234c-4.042,0-7.36-0.758-9.957-2.272s-4.042-3.663-4.334-6.447H155.441z"/>
	<path style="fill:#CC6633;stroke:#472608;" d="M186.059,43.688c0.122,0.713,0.385,1.22,0.79,1.52
		c0.716,0.535,2.039,0.802,3.97,0.802c1.134,0,2.035-0.117,2.704-0.352c0.668-0.234,1.002-0.586,1.002-1.056
		c0-0.45-0.269-0.793-0.807-1.027c-0.539-0.234-2.542-0.638-6.01-1.21c-2.497-0.431-4.256-0.971-5.276-1.619
		c-1.021-0.638-1.532-1.557-1.532-2.758c0-1.417,0.798-2.634,2.394-3.652c1.596-1.018,3.842-1.527,6.737-1.527
		c2.747,0,4.986,0.382,6.716,1.147c1.73,0.765,2.724,2.085,2.98,3.962h-5.745c-0.081-0.516-0.29-0.924-0.626-1.225
		c-0.633-0.544-1.711-0.816-3.234-0.816c-1.254,0-2.146,0.136-2.679,0.408c-0.532,0.272-0.798,0.591-0.798,0.957
		c0,0.46,0.282,0.793,0.849,0.999c0.566,0.216,2.565,0.587,5.998,1.112c2.289,0.375,4.004,0.943,5.146,1.703
		c1.129,0.77,1.693,1.731,1.693,2.885c0,1.52-0.812,2.761-2.434,3.722c-1.623,0.962-4.13,1.443-7.523,1.443
		c-3.46,0-6.016-0.509-7.665-1.527c-1.65-1.018-2.474-2.315-2.474-3.892H186.059z"/>
	<path style="fill:#CC6633;stroke:#472608;" d="M204.462,44.378h6.107v4.208h-6.107V44.378z"/>
	<path style="fill:#CC6633;stroke:#472608;" d="M229.174,38.749c-0.107-0.572-0.383-1.088-0.828-1.548
		c-0.646-0.62-1.65-0.929-3.01-0.929c-1.94,0-3.268,0.671-3.981,2.012c-0.377,0.712-0.565,1.657-0.565,2.836
		c0,1.123,0.188,2.026,0.565,2.709c0.687,1.276,1.98,1.914,3.88,1.914c1.348,0,2.304-0.253,2.869-0.76
		c0.566-0.507,0.909-1.163,1.031-1.97H235c-0.135,1.22-0.768,2.374-1.896,3.462c-1.803,1.754-4.473,2.632-8.011,2.632
		s-6.141-0.732-7.809-2.196c-1.668-1.463-2.502-3.361-2.502-5.693c0-2.631,0.921-4.679,2.765-6.143
		c1.842-1.463,4.385-2.195,7.627-2.195c2.758,0,5.014,0.432,6.77,1.294c1.755,0.863,2.794,2.388,3.117,4.574H229.174z"/>
	<path style="fill:#CC6633;stroke:#472608;" d="M257.314,46.709c-1.855,1.598-4.67,2.397-8.446,2.397s-6.592-0.799-8.446-2.397
		c-1.854-1.598-2.781-3.522-2.781-5.772c0-2.212,0.928-4.129,2.781-5.751c1.854-1.622,4.67-2.433,8.446-2.433
		s6.591,0.811,8.446,2.433c1.854,1.622,2.781,3.539,2.781,5.751C260.096,43.188,259.168,45.111,257.314,46.709z M252.718,44.493
		c0.9-0.834,1.351-2.02,1.351-3.556c0-1.537-0.45-2.72-1.351-3.548c-0.9-0.829-2.19-1.244-3.87-1.244s-2.973,0.415-3.88,1.244
		c-0.907,0.829-1.36,2.012-1.36,3.548c0,1.536,0.453,2.722,1.36,3.556c0.907,0.833,2.2,1.25,3.88,1.25
		S251.817,45.327,252.718,44.493z"/>
	<path style="fill:#CC6633;stroke:#472608;" d="M291.621,33.303c0.941,0.263,1.795,0.723,2.561,1.379
		c0.617,0.535,1.034,1.191,1.25,1.971c0.134,0.516,0.201,1.271,0.201,2.266l-0.041,9.668h-5.885v-9.767
		c0-0.582-0.135-1.06-0.404-1.436c-0.51-0.713-1.451-1.069-2.821-1.069c-1.586,0-2.681,0.459-3.286,1.379
		c-0.309,0.488-0.463,1.074-0.463,1.759v9.133h-5.785v-9.133c0-0.91-0.135-1.572-0.403-1.984c-0.483-0.741-1.431-1.112-2.843-1.112
		c-1.639,0-2.74,0.371-3.305,1.112c-0.31,0.422-0.464,1.051-0.464,1.886v9.232h-5.825V33.274h5.583v2.237
		c0.712-0.797,1.384-1.365,2.016-1.703c1.115-0.6,2.56-0.901,4.334-0.901c1.68,0,3.036,0.259,4.071,0.774
		c0.834,0.479,1.465,1.093,1.895,1.844c0.753-0.901,1.688-1.562,2.803-1.984c1.182-0.422,2.499-0.634,3.951-0.634
		C289.727,32.908,290.681,33.04,291.621,33.303z"/>
</g>
<g>
	<path style="fill:#660000;stroke:#660000;stroke-width:2;" d="M20.672,73.073h35.623v23.472H31.043v30.723h22.133v23.199H31.043
		v56.007H20.672V73.073z"/>
	<path style="fill:#660000;stroke:#660000;stroke-width:2;" d="M73.905,206.474h-7.849V97.938h7.849V206.474z"/>
	<path style="fill:#660000;stroke:#660000;stroke-width:2;" d="M97.06,157.655c1.461-0.49,2.506-1.104,3.135-1.841
		c1.128-1.276,1.692-3.265,1.692-5.965c0-3.288-0.433-5.56-1.298-6.811c-0.866-1.252-2.136-1.878-3.811-1.878
		c-1.88,0-3.21,1.228-3.992,3.682c-0.559,1.816-0.931,4.271-1.116,7.363h-7.573c0.166-7.02,0.903-12.787,2.212-17.304
		c2.083-7.068,5.661-10.604,10.732-10.604c3.3,0,6.231,1.743,8.795,5.229c2.563,3.485,3.844,10.063,3.844,19.733v36.816
		c0,2.553,0.018,5.646,0.055,9.277c0.055,2.75,0.211,4.615,0.468,5.597c0.257,0.982,0.642,1.792,1.157,2.43v3.093h-8.537
		c-0.239-1.62-0.404-3.142-0.496-4.565c-0.092-1.423-0.165-3.043-0.22-4.859c-1.089,3.142-2.345,5.816-3.767,8.025
		c-1.699,2.602-3.62,3.902-5.762,3.902c-2.733,0-4.991-2.074-6.772-6.222c-1.782-4.147-2.673-10.025-2.673-17.635
		c0-9.867,1.433-17.01,4.3-21.428c1.572-2.404,3.884-4.123,6.936-5.154L97.06,157.655z M101.858,167.448
		c-0.502,0.835-1.01,1.509-1.521,2.024s-1.214,0.994-2.107,1.437l-1.786,0.883c-1.675,0.786-2.878,1.743-3.608,2.872
		c-1.236,1.914-1.854,4.885-1.854,8.909c0,3.584,0.377,6.174,1.132,7.769c0.755,1.596,1.673,2.394,2.754,2.394
		c1.715,0,3.295-1.326,4.74-3.977s2.195-7.485,2.25-14.506V167.448z"/>
	<path style="fill:#660000;stroke:#660000;stroke-width:2;" d="M126.233,180.85c0.166,3.73,0.525,6.382,1.079,7.952
		c0.978,2.798,2.785,4.197,5.423,4.197c1.549,0,2.781-0.613,3.694-1.841c0.913-1.227,1.37-3.067,1.37-5.522
		c0-2.356-0.368-4.148-1.104-5.376c-0.736-1.227-3.473-3.337-8.211-6.332c-3.411-2.258-5.814-5.081-7.209-8.468
		c-1.396-3.338-2.093-8.148-2.093-14.432c0-7.412,1.09-13.781,3.27-19.108c2.181-5.325,5.249-7.989,9.204-7.989
		c3.753,0,6.812,2.001,9.177,6.001c2.364,4.002,3.721,10.911,4.071,20.729h-7.849c-0.111-2.699-0.396-4.835-0.856-6.406
		c-0.866-2.847-2.339-4.271-4.419-4.271c-1.712,0-2.932,0.712-3.659,2.135c-0.727,1.425-1.091,3.093-1.091,5.007
		c0,2.406,0.386,4.149,1.16,5.229c0.773,1.13,3.504,3.068,8.195,5.816c3.126,1.964,5.47,4.934,7.031,8.91
		c1.542,4.025,2.313,9.057,2.313,15.095c0,7.952-1.109,14.444-3.326,19.476s-5.643,7.548-10.278,7.548
		c-4.728,0-8.219-2.664-10.472-7.989c-2.254-5.326-3.38-12.113-3.38-20.359H126.233z"/>
	<path style="fill:#660000;stroke:#660000;stroke-width:2;" d="M176.696,126.658c1.508,1.72,2.747,4.349,3.716,7.885
		c0.822,2.999,1.325,6.082,1.508,9.251c0.183,3.168,0.274,8.34,0.274,15.512v47.168h-8.014V157.6c0-4.325-0.273-7.814-0.82-10.468
		c-0.711-3.734-2.06-5.603-4.045-5.603c-2.06,0-3.623,1.855-4.689,5.566c-1.066,3.71-1.599,9.005-1.599,15.885v43.493h-7.849V98.307
		h7.849v38.289c1.133-4.663,2.445-7.915,3.935-9.756c1.49-1.841,3.058-2.762,4.703-2.762
		C173.511,124.078,175.188,124.938,176.696,126.658z"/>
	<path style="fill:#660000;stroke:#660000;stroke-width:2;" d="M204.184,86.849c4.024-10.996,9.144-16.494,15.358-16.494
		c8.315,0,14.396,7.372,18.241,22.112c2.124,8.278,3.264,16.585,3.42,24.922h-10.439c-0.664-6.403-1.516-11.237-2.557-14.5
		c-1.859-5.8-4.615-8.7-8.268-8.7c-3.719,0-6.652,4.094-8.799,12.28c-2.147,8.188-3.221,19.771-3.221,34.755
		c0,14.984,1.133,26.206,3.398,33.667c2.266,7.462,5.145,11.192,8.637,11.192c3.58,0,6.311-3.202,8.189-9.606
		c1.038-3.443,1.9-8.609,2.586-15.497h10.371c-0.895,14.562-3.18,26.403-6.857,35.525c-3.677,9.123-8.388,13.685-14.133,13.685
		c-7.109,0-12.697-6.163-16.766-18.488c-4.069-12.384-6.103-29.362-6.103-50.931C197.243,117.45,199.557,99.477,204.184,86.849z"/>
	<path style="fill:#660000;stroke:#660000;stroke-width:2;" d="M264.248,157.655c1.461-0.49,2.506-1.104,3.135-1.841
		c1.129-1.276,1.692-3.265,1.692-5.965c0-3.288-0.433-5.56-1.298-6.811c-0.865-1.252-2.136-1.878-3.811-1.878
		c-1.879,0-3.211,1.228-3.992,3.682c-0.559,1.816-0.931,4.271-1.116,7.363h-7.573c0.166-7.02,0.902-12.787,2.213-17.304
		c2.083-7.068,5.66-10.604,10.73-10.604c3.301,0,6.232,1.743,8.796,5.229s3.845,10.063,3.845,19.733v36.816
		c0,2.553,0.018,5.646,0.055,9.277c0.055,2.75,0.211,4.615,0.469,5.597c0.256,0.982,0.643,1.792,1.156,2.43v3.093h-8.537
		c-0.238-1.62-0.404-3.142-0.496-4.565c-0.092-1.423-0.165-3.043-0.221-4.859c-1.089,3.142-2.345,5.816-3.767,8.025
		c-1.698,2.602-3.62,3.902-5.762,3.902c-2.733,0-4.991-2.074-6.772-6.222c-1.782-4.147-2.673-10.025-2.673-17.635
		c0-9.867,1.433-17.01,4.3-21.428c1.572-2.404,3.885-4.123,6.936-5.154L264.248,157.655z M269.047,167.448
		c-0.502,0.835-1.01,1.509-1.521,2.024s-1.214,0.994-2.107,1.437l-1.787,0.883c-1.674,0.786-2.877,1.743-3.607,2.872
		c-1.236,1.914-1.854,4.885-1.854,8.909c0,3.584,0.377,6.174,1.133,7.769c0.754,1.596,1.672,2.394,2.754,2.394
		c1.715,0,3.295-1.326,4.74-3.977c1.444-2.65,2.194-7.485,2.25-14.506V167.448z"/>
	<path style="fill:#660000;stroke:#660000;stroke-width:2;" d="M304.01,124.336c0.102,0.025,0.326,0.062,0.676,0.11v21.501
		c-0.496-0.147-0.937-0.245-1.322-0.295c-0.386-0.048-0.697-0.073-0.937-0.073c-3.157,0-5.278,2.75-6.361,8.247
		c-0.606,3.093-0.909,7.854-0.909,14.284v38.363h-7.903v-80.26h7.491v13.99c1.211-5.351,2.267-9.008,3.166-10.972
		c1.469-3.288,3.379-4.934,5.729-4.934C303.785,124.299,303.909,124.312,304.01,124.336z"/>
	<path style="fill:#660000;stroke:#660000;stroke-width:2;" d="M328.812,127.502c1.413,2.136,2.562,5.094,3.442,8.873V98.086h7.959
		v108.388h-7.629v-11.119c-1.119,4.763-2.396,8.223-3.827,10.383c-1.433,2.159-3.214,3.239-5.343,3.239
		c-3.507,0-6.458-3.792-8.854-11.376c-2.396-7.584-3.594-17.315-3.594-29.195c0-13.695,1.18-24.471,3.539-32.325
		c2.358-7.854,5.512-11.781,9.459-11.781C325.782,124.299,327.398,125.367,328.812,127.502z M330.739,184.678
		c1.157-4.418,1.735-10.136,1.735-17.156c0-9.817-0.928-16.837-2.781-21.059c-1.139-2.552-2.461-3.829-3.966-3.829
		c-2.296,0-3.979,2.319-5.054,6.958s-1.611,10.396-1.611,17.268c0,7.412,0.547,13.34,1.639,17.782
		c1.092,4.443,2.75,6.663,4.971,6.663C327.894,191.305,329.583,189.096,330.739,184.678z"/>
	<path style="fill:#660000;stroke:#660000;stroke-width:2;" d="M357.041,180.85c0.166,3.73,0.525,6.382,1.079,7.952
		c0.978,2.798,2.785,4.197,5.423,4.197c1.55,0,2.781-0.613,3.695-1.841c0.912-1.227,1.369-3.067,1.369-5.522
		c0-2.356-0.368-4.148-1.104-5.376c-0.736-1.227-3.473-3.337-8.211-6.332c-3.411-2.258-5.814-5.081-7.209-8.468
		c-1.396-3.338-2.094-8.148-2.094-14.432c0-7.412,1.09-13.781,3.271-19.108c2.18-5.325,5.248-7.989,9.203-7.989
		c3.754,0,6.812,2.001,9.176,6.001c2.365,4.002,3.722,10.911,4.072,20.729h-7.85c-0.11-2.699-0.396-4.835-0.855-6.406
		c-0.865-2.847-2.339-4.271-4.419-4.271c-1.712,0-2.932,0.712-3.659,2.135c-0.727,1.425-1.09,3.093-1.09,5.007
		c0,2.406,0.387,4.149,1.16,5.229c0.772,1.13,3.504,3.068,8.194,5.816c3.126,1.964,5.47,4.934,7.03,8.91
		c1.543,4.025,2.314,9.057,2.314,15.095c0,7.952-1.109,14.444-3.326,19.476s-5.643,7.548-10.278,7.548
		c-4.728,0-8.219-2.664-10.472-7.989c-2.254-5.326-3.381-12.113-3.381-20.359H357.041z"/>
</g>
<g>
	<path style="fill:#F9061D;stroke:#F9061D;stroke-width:2;" d="M25.056,68.167h35.623v23.472H35.427v30.723H57.56v23.199H35.427
		v56.007H25.056V68.167z"/>
	<path style="fill:#F9061D;stroke:#F9061D;stroke-width:2;" d="M78.289,201.567H70.44V93.032h7.849V201.567z"/>
	<path style="fill:#F9061D;stroke:#F9061D;stroke-width:2;" d="M101.443,152.749c1.461-0.49,2.505-1.104,3.135-1.841
		c1.128-1.276,1.692-3.265,1.692-5.965c0-3.288-0.433-5.56-1.298-6.811c-0.866-1.252-2.136-1.878-3.81-1.878
		c-1.88,0-3.211,1.228-3.992,3.682c-0.559,1.816-0.931,4.271-1.117,7.363H88.48c0.166-7.02,0.903-12.787,2.212-17.304
		c2.084-7.068,5.661-10.604,10.732-10.604c3.3,0,6.232,1.743,8.795,5.229c2.562,3.485,3.844,10.063,3.844,19.733v36.816
		c0,2.553,0.019,5.646,0.056,9.277c0.055,2.75,0.211,4.615,0.468,5.597c0.257,0.982,0.643,1.792,1.157,2.43v3.093h-8.537
		c-0.239-1.62-0.404-3.142-0.496-4.565c-0.092-1.423-0.165-3.043-0.221-4.859c-1.089,3.142-2.345,5.816-3.767,8.025
		c-1.699,2.602-3.62,3.902-5.762,3.902c-2.733,0-4.991-2.074-6.772-6.222c-1.782-4.147-2.673-10.025-2.673-17.635
		c0-9.867,1.433-17.01,4.3-21.428c1.572-2.404,3.884-4.123,6.936-5.154L101.443,152.749z M106.242,162.542
		c-0.502,0.835-1.01,1.509-1.521,2.024s-1.214,0.994-2.107,1.437l-1.787,0.883c-1.675,0.786-2.877,1.743-3.608,2.872
		c-1.236,1.914-1.854,4.885-1.854,8.909c0,3.584,0.377,6.174,1.132,7.769c0.755,1.596,1.673,2.394,2.755,2.394
		c1.715,0,3.294-1.326,4.739-3.977c1.445-2.65,2.195-7.485,2.251-14.506V162.542z"/>
	<path style="fill:#F9061D;stroke:#F9061D;stroke-width:2;" d="M130.617,175.943c0.167,3.73,0.526,6.382,1.08,7.952
		c0.978,2.798,2.785,4.197,5.423,4.197c1.55,0,2.781-0.613,3.694-1.841c0.913-1.227,1.37-3.067,1.37-5.522
		c0-2.356-0.368-4.148-1.103-5.376c-0.736-1.227-3.473-3.337-8.211-6.332c-3.411-2.258-5.814-5.081-7.209-8.468
		c-1.396-3.338-2.093-8.148-2.093-14.432c0-7.412,1.09-13.781,3.271-19.108c2.181-5.325,5.249-7.989,9.204-7.989
		c3.753,0,6.812,2.001,9.176,6.001c2.364,4.002,3.721,10.911,4.071,20.729h-7.849c-0.11-2.699-0.396-4.835-0.855-6.406
		c-0.866-2.847-2.339-4.271-4.419-4.271c-1.712,0-2.932,0.712-3.659,2.135c-0.727,1.425-1.091,3.093-1.091,5.007
		c0,2.406,0.387,4.149,1.16,5.229c0.773,1.13,3.505,3.068,8.195,5.816c3.126,1.964,5.47,4.934,7.031,8.91
		c1.542,4.025,2.313,9.057,2.313,15.095c0,7.952-1.108,14.444-3.325,19.476s-5.643,7.548-10.278,7.548
		c-4.729,0-8.219-2.664-10.473-7.989c-2.254-5.326-3.38-12.113-3.38-20.359H130.617z"/>
	<path style="fill:#F9061D;stroke:#F9061D;stroke-width:2;" d="M181.08,121.752c1.508,1.72,2.747,4.349,3.716,7.885
		c0.822,2.999,1.325,6.082,1.508,9.251c0.183,3.168,0.274,8.34,0.274,15.512v47.168h-8.014v-48.874c0-4.325-0.274-7.814-0.82-10.468
		c-0.711-3.734-2.06-5.603-4.046-5.603c-2.06,0-3.622,1.855-4.688,5.566c-1.066,3.71-1.599,9.005-1.599,15.885v43.493h-7.849V93.4
		h7.849v38.289c1.133-4.663,2.445-7.915,3.935-9.756c1.489-1.841,3.057-2.762,4.703-2.762
		C177.895,119.172,179.572,120.033,181.08,121.752z"/>
	<path style="fill:#F9061D;stroke:#F9061D;stroke-width:2;" d="M208.567,81.942c4.024-10.996,9.144-16.494,15.358-16.494
		c8.315,0,14.396,7.372,18.241,22.112c2.124,8.278,3.264,16.585,3.42,24.922h-10.439c-0.664-6.403-1.517-11.237-2.557-14.5
		c-1.859-5.8-4.615-8.7-8.268-8.7c-3.72,0-6.652,4.094-8.8,12.28c-2.146,8.188-3.221,19.771-3.221,34.755
		c0,14.984,1.133,26.206,3.398,33.667c2.266,7.462,5.145,11.192,8.637,11.192c3.581,0,6.311-3.202,8.189-9.606
		c1.039-3.443,1.901-8.609,2.587-15.497h10.371c-0.895,14.562-3.18,26.403-6.857,35.525c-3.677,9.123-8.388,13.685-14.133,13.685
		c-7.109,0-12.698-6.163-16.767-18.488c-4.068-12.384-6.103-29.362-6.103-50.931C201.626,112.544,203.94,94.57,208.567,81.942z"/>
	<path style="fill:#F9061D;stroke:#F9061D;stroke-width:2;" d="M268.632,152.749c1.461-0.49,2.506-1.104,3.135-1.841
		c1.128-1.276,1.692-3.265,1.692-5.965c0-3.288-0.434-5.56-1.299-6.811c-0.865-1.252-2.135-1.878-3.81-1.878
		c-1.88,0-3.21,1.228-3.992,3.682c-0.558,1.816-0.931,4.271-1.116,7.363h-7.573c0.165-7.02,0.903-12.787,2.212-17.304
		c2.084-7.068,5.661-10.604,10.732-10.604c3.301,0,6.232,1.743,8.795,5.229s3.844,10.063,3.844,19.733v36.816
		c0,2.553,0.019,5.646,0.056,9.277c0.056,2.75,0.211,4.615,0.468,5.597c0.258,0.982,0.643,1.792,1.157,2.43v3.093h-8.537
		c-0.239-1.62-0.404-3.142-0.496-4.565c-0.092-1.423-0.165-3.043-0.22-4.859c-1.09,3.142-2.346,5.816-3.768,8.025
		c-1.699,2.602-3.619,3.902-5.762,3.902c-2.733,0-4.99-2.074-6.772-6.222s-2.673-10.025-2.673-17.635
		c0-9.867,1.434-17.01,4.3-21.428c1.572-2.404,3.884-4.123,6.937-5.154L268.632,152.749z M273.432,162.542
		c-0.504,0.835-1.011,1.509-1.521,2.024c-0.513,0.516-1.215,0.994-2.108,1.437l-1.786,0.883c-1.676,0.786-2.878,1.743-3.607,2.872
		c-1.236,1.914-1.854,4.885-1.854,8.909c0,3.584,0.377,6.174,1.132,7.769c0.756,1.596,1.674,2.394,2.755,2.394
		c1.716,0,3.295-1.326,4.739-3.977c1.445-2.65,2.195-7.485,2.252-14.506V162.542z"/>
	<path style="fill:#F9061D;stroke:#F9061D;stroke-width:2;" d="M308.395,119.43c0.101,0.025,0.326,0.062,0.674,0.11v21.501
		c-0.495-0.147-0.936-0.245-1.321-0.295c-0.386-0.048-0.698-0.073-0.937-0.073c-3.158,0-5.278,2.75-6.361,8.247
		c-0.605,3.093-0.908,7.854-0.908,14.284v38.363h-7.904v-80.26h7.49v13.99c1.212-5.351,2.268-9.008,3.168-10.972
		c1.469-3.288,3.377-4.934,5.728-4.934C308.17,119.393,308.293,119.405,308.395,119.43z"/>
	<path style="fill:#F9061D;stroke:#F9061D;stroke-width:2;" d="M333.195,122.596c1.414,2.136,2.562,5.094,3.442,8.873V93.18h7.959
		v108.388h-7.628v-11.119c-1.121,4.763-2.396,8.223-3.828,10.383c-1.432,2.159-3.213,3.239-5.343,3.239
		c-3.507,0-6.458-3.792-8.854-11.376c-2.395-7.584-3.594-17.315-3.594-29.195c0-13.695,1.18-24.471,3.539-32.325
		c2.359-7.854,5.512-11.781,9.46-11.781C330.166,119.393,331.781,120.461,333.195,122.596z M335.123,179.771
		c1.156-4.418,1.735-10.136,1.735-17.156c0-9.817-0.927-16.837-2.782-21.059c-1.139-2.552-2.46-3.829-3.965-3.829
		c-2.295,0-3.979,2.319-5.054,6.958c-1.073,4.639-1.61,10.396-1.61,17.268c0,7.412,0.545,13.34,1.639,17.782
		c1.092,4.443,2.748,6.663,4.971,6.663C332.277,186.398,333.967,184.189,335.123,179.771z"/>
	<path style="fill:#F9061D;stroke:#F9061D;stroke-width:2;" d="M361.425,175.943c0.166,3.73,0.525,6.382,1.079,7.952
		c0.978,2.798,2.785,4.197,5.424,4.197c1.549,0,2.781-0.613,3.693-1.841c0.914-1.227,1.37-3.067,1.37-5.522
		c0-2.356-0.368-4.148-1.104-5.376c-0.735-1.227-3.473-3.337-8.211-6.332c-3.411-2.258-5.813-5.081-7.209-8.468
		c-1.396-3.338-2.093-8.148-2.093-14.432c0-7.412,1.09-13.781,3.27-19.108c2.181-5.325,5.248-7.989,9.205-7.989
		c3.752,0,6.812,2.001,9.176,6.001c2.363,4.002,3.721,10.911,4.07,20.729h-7.848c-0.111-2.699-0.396-4.835-0.856-6.406
		c-0.866-2.847-2.339-4.271-4.419-4.271c-1.712,0-2.932,0.712-3.658,2.135c-0.728,1.425-1.092,3.093-1.092,5.007
		c0,2.406,0.387,4.149,1.16,5.229c0.773,1.13,3.505,3.068,8.195,5.816c3.127,1.964,5.471,4.934,7.031,8.91
		c1.542,4.025,2.312,9.057,2.312,15.095c0,7.952-1.107,14.444-3.324,19.476c-2.218,5.031-5.644,7.548-10.279,7.548
		c-4.729,0-8.219-2.664-10.473-7.989c-2.254-5.326-3.38-12.113-3.38-20.359H361.425z"/>
</g>
</svg>
